<?xml version="1.0" standalone="no"?>
<!DOCTYPE svg PUBLIC "-//W3C//DTD SVG 20010904//EN"
 "http://www.w3.org/TR/2001/REC-SVG-20010904/DTD/svg10.dtd">
<svg version="1.0" xmlns="http://www.w3.org/2000/svg"
 width="550.000000pt" height="550.000000pt" viewBox="0 0 550.000000 550.000000"
 preserveAspectRatio="xMidYMid meet">
<metadata>
Created by potrace 1.11, written by Peter Selinger 2001-2013
</metadata>
<g transform="translate(0.000000,550.000000) scale(0.100000,-0.100000)"
fill="#000000" stroke="none">
<path d="M2538 5295 c-1 -1 -34 -5 -73 -9 -86 -7 -176 -23 -361 -61 -11 -3
-50 -14 -85 -26 -35 -11 -71 -22 -79 -24 -154 -37 -575 -249 -690 -347 -11
-10 -24 -18 -28 -18 -4 0 -21 -14 -39 -30 -18 -17 -35 -30 -38 -30 -4 0 -12
-6 -19 -12 -8 -7 -42 -38 -77 -68 -69 -61 -129 -119 -204 -201 -83 -90 -105
-118 -176 -218 -37 -53 -77 -108 -88 -122 -12 -15 -24 -35 -28 -45 -3 -11 -14
-30 -23 -44 -26 -38 -102 -185 -139 -270 -30 -67 -116 -312 -127 -361 -2 -11
-6 -27 -8 -36 -18 -77 -23 -103 -20 -103 3 0 1 -8 -4 -17 -6 -10 -13 -42 -16
-72 -4 -29 -8 -56 -10 -60 -10 -16 -21 -205 -21 -371 0 -184 6 -265 26 -390 6
-36 13 -76 15 -90 9 -71 76 -306 119 -415 88 -227 235 -497 335 -612 5 -7 10
-15 10 -18 0 -4 6 -12 13 -19 6 -7 28 -32 47 -56 93 -112 220 -244 299 -310
24 -19 48 -40 54 -46 7 -6 46 -36 87 -67 41 -31 80 -61 85 -65 30 -24 231
-142 242 -142 7 0 13 -4 13 -9 0 -6 127 -71 150 -76 3 0 26 -10 51 -22 198
-89 452 -156 729 -190 81 -10 454 -9 535 1 114 14 158 21 235 37 25 5 59 12
75 15 57 11 261 76 360 115 92 36 341 157 368 179 26 21 150 100 157 100 5 0
10 3 12 8 2 4 39 34 83 68 44 34 97 76 118 95 56 50 197 188 197 193 0 2 12
17 28 33 164 171 338 452 460 743 13 31 62 169 68 190 2 8 17 65 33 125 16 61
31 128 34 150 4 22 11 64 17 94 31 163 35 543 6 736 -25 168 -80 398 -107 447
-5 10 -9 23 -9 29 0 48 -188 446 -253 533 -4 6 -35 52 -69 101 -33 50 -65 92
-70 93 -4 2 -8 8 -8 12 0 5 -10 20 -22 33 -13 13 -45 50 -73 82 -46 53 -134
143 -217 221 -56 52 -219 177 -293 223 -39 24 -83 53 -99 64 -73 50 -423 210
-489 222 -9 2 -22 7 -27 10 -5 3 -18 8 -27 10 -10 3 -70 18 -133 35 -63 17
-128 32 -145 35 -16 2 -39 6 -50 8 -11 3 -47 8 -80 12 -33 4 -71 10 -85 12
-29 5 -447 13 -452 8z"/>
</g>
</svg>
